<svg width="167" height="24" viewBox="0 0 167 24" fill="none" xmlns="http://www.w3.org/2000/svg">
<g clip-path="url(#clip0_4_554)">
<path fill-rule="evenodd" clip-rule="evenodd" d="M69.9078 16.1333C65.1187 16.1333 61.6358 12.8421 61.6358 8.31666C61.6358 3.79123 65.1187 0.5 69.97 0.5C72.5822 0.5 74.8212 1.44035 76.2517 3.20351L76.3761 3.37982L73.8261 5.7307L73.6395 5.55438C72.7066 4.43772 71.4627 3.90877 70.0944 3.90877C67.42 3.90877 65.5541 5.7307 65.5541 8.37543C65.5541 11.0202 67.42 12.8421 70.0944 12.8421C71.5249 12.8421 72.7066 12.3131 73.6395 11.1965L73.8261 11.0202L76.3761 13.371L76.2517 13.5474C74.8212 15.3105 72.5822 16.2509 69.9078 16.2509V16.1333ZM33.2122 15.8983H25.3134V0.735128H32.839C36.5085 0.735128 38.6854 2.2632 38.6854 4.79039C38.6854 6.14214 38.0634 7.25881 37.0061 7.96407C38.561 8.61056 39.4317 9.96231 39.4317 11.6667C39.4317 14.3702 37.2549 15.8983 33.2744 15.8983H33.2122ZM29.1695 12.9009H32.9634C35.2024 12.9009 35.4512 12.0193 35.4512 11.3141C35.4512 10.2562 34.6427 9.72723 32.9634 9.72723H29.1695V12.9009ZM29.1695 6.78863H32.3414C33.8963 6.78863 34.7049 6.25969 34.7049 5.26056C34.7049 4.90793 34.7049 3.79127 32.3414 3.79127H29.1695V6.78863ZM45.527 15.8983H41.6087V0.735128H45.527V15.8983ZM52.3685 15.8983H56.2247V3.96758H61.0137V0.735128H47.5795V3.96758H52.3685V15.8983ZM76.9358 8.31666C76.9358 12.8421 80.4809 16.1333 85.3322 16.1333C90.1834 16.1333 93.7285 12.8421 93.7285 8.31666C93.7285 3.79123 90.1834 0.5 85.3322 0.5C80.4809 0.5 76.9358 3.79123 76.9358 8.31666ZM80.9163 8.31666C80.9163 5.7307 82.7821 3.85 85.3322 3.85C87.8822 3.85 89.748 5.7307 89.748 8.31666C89.748 10.9026 87.8822 12.7833 85.3322 12.7833C82.7821 12.7833 80.9163 10.9026 80.9163 8.31666ZM99.5124 15.8983H95.5941V0.735128H99.5124V15.8983ZM112.885 15.8983H116.057V0.735128H112.2V9.19828L105.172 0.735128H102V15.8983H105.857V7.43512L112.885 15.8983ZM122.152 15.8983H118.233V0.735128H122.152V15.8983ZM124.204 14.3702C125.635 15.4281 128.06 16.1333 130.424 16.1333V16.1921C135.213 16.1921 136.954 13.6061 136.954 11.4316C136.954 8.16915 133.899 7.44763 131.422 6.86282L131.357 6.84736C129.74 6.49473 128.309 6.1421 128.309 5.20175C128.309 4.2614 129.242 3.73245 130.921 3.73245C132.227 3.73245 133.596 4.14386 134.902 4.84912L135.151 4.96666L136.394 1.9693L136.208 1.85175C134.84 0.970175 132.912 0.5 130.921 0.5C126.941 0.5 124.391 2.3807 124.453 5.26052C124.453 8.5817 127.509 9.30345 129.986 9.88831L130.051 9.9035C131.668 10.2561 133.098 10.6088 133.098 11.5491C133.098 12.7246 131.481 12.9009 130.486 12.9009C128.807 12.9009 126.941 12.3719 125.697 11.4316L125.448 11.2553L124.08 14.2526L124.204 14.3702ZM146.532 15.8983H142.676V3.96758H137.887V0.735128H151.321V3.96758H146.532V15.8983ZM153.063 3.61479C153.063 3.90865 153.622 4.14374 153.622 4.14374C153.933 4.14374 154.182 3.90865 154.182 3.61479C154.182 3.32093 153.933 3.08585 153.622 3.08585C153.311 3.08585 153.063 3.32093 153.063 3.61479ZM156.732 4.1439C155.613 4.1439 154.867 3.43864 154.867 2.43951C154.867 1.44039 155.675 0.735128 156.732 0.735128C157.354 0.735128 157.852 0.970216 158.163 1.32285L157.541 1.91057C157.541 1.91057 157.043 1.49916 156.795 1.49916C156.235 1.49916 155.799 1.91057 155.799 2.43951C155.799 2.96846 156.235 3.37986 156.795 3.37986C157.106 3.37986 157.354 3.26232 157.541 3.02723L158.163 3.49741C157.852 3.90881 157.354 4.1439 156.732 4.1439ZM158.474 2.43951C158.474 3.43864 159.282 4.1439 160.402 4.1439C161.521 4.1439 162.33 3.43864 162.33 2.43951C162.33 1.44039 161.521 0.735128 160.402 0.735128C159.282 0.735128 158.474 1.44039 158.474 2.43951ZM159.469 2.43951C159.469 1.91057 159.842 1.49916 160.402 1.49916C161.024 1.49916 161.397 1.91057 161.397 2.43951C161.397 2.96846 160.961 3.37986 160.402 3.37986C159.842 3.37986 159.469 2.96846 159.469 2.43951ZM162.952 3.9676V0.852693V0.793911H163.698L164.88 2.67461L166.062 0.793911H166.808V4.08514H166V2.38075L165.129 3.7325H164.693L163.823 2.43952V4.08514H162.952V3.9676ZM24.8783 20.4824C24.8783 20.4624 24.8785 20.4424 24.8791 20.4226C24.9107 21.5098 25.8317 22.3043 26.9929 22.3043C27.6149 22.3043 28.1124 22.128 28.4856 21.7754L28.2368 21.5403C27.9258 21.8929 27.4905 22.0104 27.0551 22.0104C26.1222 22.0104 25.3758 21.3639 25.3758 20.4236C25.3758 19.4832 26.06 18.8368 27.0551 18.8368C27.4905 18.8368 27.9258 19.0131 28.2368 19.3069L28.4856 19.0718C28.1124 18.7192 27.5527 18.5429 26.9929 18.5429C25.7713 18.5429 24.9096 19.3365 24.8791 20.4226C24.8785 20.4034 24.8783 20.3842 24.8783 20.3648V20.4824ZM31.16 21.1289L32.0929 22.3631V22.3043H32.5282L31.5331 21.0113C32.1551 20.835 32.466 20.4236 32.466 19.8359C32.466 19.0131 31.8441 18.5429 30.849 18.5429H29.3563V22.3043H29.7917V21.1289H30.849H31.16ZM30.849 18.9543C31.6575 18.9543 32.0929 19.3069 32.0929 19.8946C32.0929 20.4824 31.6575 20.835 30.849 20.835H29.7917V18.9543H30.849ZM34.8294 21.0701V22.3631H34.3941V21.0701L32.777 18.6017H33.2124L34.5807 20.7175L35.949 18.6017H36.3843L34.7672 21.0701H34.8294ZM37.5036 21.1876H38.561C39.5561 21.1876 40.178 20.7175 40.178 19.8947C40.178 19.0719 39.5561 18.6017 38.561 18.6017H37.0683V22.3631H37.5036V21.1876ZM38.4988 18.9543C39.3073 18.9543 39.7427 19.3069 39.7427 19.8947C39.7427 20.4824 39.3073 20.835 38.4988 20.835H37.4414V18.9543H38.4988ZM41.6709 18.9543H40.3026V18.6017H43.5368V18.9543H42.1063V22.3631H41.6709V18.9543ZM45.9623 18.5429C44.7184 18.5429 43.8477 19.3657 43.8477 20.4824C43.8477 21.599 44.7184 22.4218 45.9623 22.4218C47.2062 22.4218 48.077 21.599 48.077 20.4824C48.077 19.3657 47.2062 18.5429 45.9623 18.5429ZM45.9623 18.8955C46.9574 18.8955 47.6416 19.6008 47.6416 20.4824C47.6416 21.4227 46.8953 22.0692 45.9623 22.0692C45.0294 22.0692 44.283 21.4227 44.283 20.4824C44.283 19.542 44.9672 18.8955 45.9623 18.8955ZM48.6988 20.4824C48.6988 20.4624 48.6991 20.4424 48.6996 20.4226C48.7312 21.5098 49.6522 22.3043 50.8135 22.3043C51.4354 22.3043 51.933 22.128 52.3061 21.7754L52.0574 21.5403C51.7464 21.8929 51.311 22.0104 50.8757 22.0104C49.9427 22.0104 49.1964 21.3639 49.1964 20.4236C49.1964 19.4832 49.8805 18.8368 50.8757 18.8368C51.311 18.8368 51.7464 19.0131 52.0574 19.3069L52.3061 19.0718C51.933 18.7192 51.3732 18.5429 50.8135 18.5429C49.5918 18.5429 48.7301 19.3365 48.6996 20.4226C48.6991 20.4034 48.6988 20.3842 48.6988 20.3648V20.4824ZM53.1148 18.6017V20.7762H53.2392C53.2392 21.8341 53.8612 22.4219 54.8563 22.4219C55.8514 22.4219 56.4734 21.8341 56.4734 20.7762V18.6017H56.038V20.7762C56.038 21.6578 55.6027 22.0692 54.7941 22.0692C53.9856 22.0692 53.5502 21.6578 53.5502 20.7762V18.6017H53.1148ZM60.4538 22.3631L59.5209 21.1289H59.2099H58.1526V22.3043H57.7172V18.5429H59.2099C60.2051 18.5429 60.827 19.0131 60.827 19.8359C60.827 20.4236 60.516 20.835 59.8941 21.0113L60.8892 22.3043H60.4538V22.3631ZM60.4538 19.8946C60.4538 19.3069 60.0185 18.9543 59.2099 18.9543H58.1526V20.835H59.2099C60.0185 20.835 60.4538 20.4824 60.4538 19.8946ZM63.6882 21.1289L64.6211 22.3631V22.3043H65.0565L64.0614 21.0113C64.6833 20.835 64.9943 20.4236 64.9943 19.8359C64.9943 19.0131 64.3723 18.5429 63.3772 18.5429H61.8845V22.3043H62.3199V21.1289H63.3772H63.6882ZM63.3772 18.9543C64.1858 18.9543 64.6211 19.3069 64.6211 19.8946C64.6211 20.4824 64.1858 20.835 63.3772 20.835H62.3199V18.9543H63.3772ZM68.8502 22.0104V22.0692H66.4868V20.6587H68.5393V20.3061H66.4868V18.9543H68.788V18.6017H66.0514V22.3631H68.8502V22.0692H68.9124L68.8502 22.0104ZM73.2038 22.3631V18.6017H72.7684V21.6578L70.2184 18.6017H69.8453V22.3631H70.2806V19.3069L72.8306 22.3631H73.2038ZM74.1993 20.4824C74.1993 20.4623 74.1996 20.4424 74.2001 20.4226C74.2317 21.5097 75.1527 22.3043 76.3139 22.3043C76.9359 22.3043 77.4334 22.128 77.8066 21.7754L77.5578 21.5403C77.2469 21.8929 76.8115 22.0104 76.3761 22.0104C75.4432 22.0104 74.6969 21.3639 74.6969 20.4236C74.6969 19.4832 75.381 18.8368 76.3761 18.8368C76.8115 18.8368 77.2469 19.0131 77.5578 19.3069L77.8066 19.0718C77.4334 18.7192 76.8737 18.5429 76.3139 18.5429C75.0923 18.5429 74.2306 19.3365 74.2001 20.4226L74.1994 20.3898L74.1993 20.3648V20.4824ZM79.9832 22.3631V21.0701H79.921L81.5381 18.6017H81.1027L79.7344 20.7175L78.3661 18.6017H77.9307L79.5478 21.0701V22.3631H79.9832ZM87.5088 18.6017V22.3631H87.1357L84.5857 19.3069V22.3631H84.1503V18.6017H84.5235L87.0735 21.6578V18.6017H87.5088ZM91.6762 22.0692V22.0104L91.7384 22.0692H91.6762ZM89.3128 22.0692H91.6762V22.3631H88.8774V18.6017H91.614V18.9543H89.3128V20.3061H91.3652V20.6587H89.3128V22.0692ZM98.1445 18.6017L96.7762 22.3631H96.3409L95.1591 19.1306L93.9774 22.3631H93.5421L92.1738 18.6017H92.6091L93.7908 21.8341L94.9726 18.6017H95.3457L96.5275 21.8929L97.7092 18.6017H98.1445ZM98.7043 21.599L98.5177 21.8929V21.9517C98.8287 22.2455 99.3884 22.4218 100.01 22.4218C101.006 22.4218 101.503 21.8929 101.503 21.3639C101.503 20.6467 100.803 20.492 100.145 20.3468C99.5634 20.2184 99.0153 20.0974 99.0153 19.6008C99.0153 19.1894 99.3262 18.8955 100.073 18.8955C100.446 18.8955 100.819 18.9543 101.192 19.1894L101.316 18.8955C101.006 18.6604 100.508 18.5429 100.073 18.5429C99.0153 18.5429 98.5799 19.0718 98.5799 19.6008C98.5799 20.3567 99.2944 20.5218 99.9575 20.6751C100.532 20.8079 101.068 20.9317 101.068 21.4227C101.068 21.7754 100.757 22.0692 100.01 22.0692C99.5128 22.0692 98.7043 21.599 98.7043 21.599ZM107.287 22.4219L106.727 21.8929C106.416 22.2455 105.919 22.4219 105.421 22.4219C104.612 22.4219 104.053 22.0104 104.053 21.4815C104.053 21.0113 104.301 20.7175 105.048 20.3061C104.675 19.9534 104.55 19.7183 104.55 19.4245C104.55 18.9543 104.923 18.6017 105.545 18.6017C106.105 18.6017 106.478 18.8955 106.478 19.3657C106.478 19.7183 106.23 20.0122 105.608 20.3648L106.727 21.4227C106.727 21.4227 106.914 20.9526 106.976 20.7175L107.287 20.835C107.225 21.1876 107.1 21.4815 106.914 21.7166L107.473 22.2455L107.287 22.4219ZM106.478 21.6578L105.297 20.4824C104.675 20.835 104.488 21.0701 104.488 21.4227C104.488 21.8341 104.861 22.128 105.483 22.128C105.919 22.128 106.292 22.0104 106.54 21.7166L106.478 21.6578ZM104.923 19.3657C104.923 19.3657 104.986 19.7183 105.359 20.071C105.919 19.7771 106.105 19.542 106.105 19.3069C106.105 19.0719 105.919 18.8368 105.545 18.8368C105.172 18.8368 104.923 19.0719 104.923 19.3657ZM109.526 18.9543H110.894V22.3631H111.33V18.9543H112.76V18.6017H109.526V18.9543ZM116.305 22.0104V22.0692H113.942V20.6587H115.994V20.3061H113.942V18.9543H116.243V18.6017H113.507V22.3631H116.305V22.0692H116.368L116.305 22.0104ZM116.928 20.4511L116.927 20.4824V20.3648C116.927 20.3842 116.928 20.4034 116.928 20.4226V20.4511ZM116.928 20.4226C116.959 19.3365 117.82 18.5429 119.042 18.5429C119.602 18.5429 120.161 18.7192 120.535 19.0718L120.286 19.3069C119.975 19.0131 119.539 18.8368 119.104 18.8368C118.109 18.8368 117.425 19.4832 117.425 20.4236C117.425 21.3639 118.171 22.0104 119.104 22.0104C119.539 22.0104 119.975 21.8929 120.286 21.5403L120.535 21.7754C120.161 22.128 119.664 22.3043 119.042 22.3043C117.881 22.3043 116.96 21.5097 116.928 20.4226ZM124.764 22.3631H124.328V20.5999H121.841V22.3631H121.405V18.6017H121.841V20.3061H124.328V18.6017H124.764V22.3631ZM129.055 22.3631H129.429V18.6017H128.993V21.6578L126.443 18.6017H126.07V22.3631H126.505V19.3069L129.055 22.3631ZM130.424 20.4824C130.424 19.3657 131.294 18.5429 132.538 18.5429C133.782 18.5429 134.653 19.3657 134.653 20.4824C134.653 21.599 133.782 22.4218 132.538 22.4218C131.294 22.4218 130.424 21.599 130.424 20.4824ZM134.218 20.4824C134.218 19.6008 133.533 18.8955 132.538 18.8955C131.543 18.8955 130.859 19.542 130.859 20.4824C130.859 21.4227 131.605 22.0692 132.538 22.0692C133.471 22.0692 134.218 21.4227 134.218 20.4824ZM136.021 18.6017H135.586V22.3631H138.26V22.0104H136.021V18.6017ZM138.572 20.4824C138.572 19.3657 139.442 18.5429 140.686 18.5429C141.93 18.5429 142.801 19.3657 142.801 20.4824C142.801 21.599 141.93 22.4218 140.686 22.4218C139.442 22.4218 138.572 21.599 138.572 20.4824ZM142.365 20.4824C142.365 19.6008 141.681 18.8955 140.686 18.8955C139.691 18.8955 139.007 19.542 139.007 20.4824C139.007 21.4227 139.753 22.0692 140.686 22.0692C141.619 22.0692 142.365 21.4227 142.365 20.4824ZM146.968 20.4824H146.532V21.7166C146.221 21.9517 145.848 22.0104 145.475 22.0104C144.542 22.0104 143.796 21.3639 143.796 20.4236C143.796 19.4832 144.542 18.8368 145.537 18.8368C145.973 18.8368 146.408 19.0131 146.719 19.3069L146.968 19.0718C146.594 18.7192 146.097 18.5429 145.475 18.5429C144.231 18.5429 143.36 19.3657 143.36 20.4824C143.36 21.599 144.231 22.4218 145.475 22.4218C146.035 22.4218 146.594 22.2455 146.968 21.9517V20.4824ZM149.518 21.0701V22.3631H149.082V21.0701L147.465 18.6017H147.901L149.269 20.7175L150.637 18.6017H151.073L149.456 21.0701H149.518ZM0 17.6614L5.3488 22.5395H23.0745V0.735128H0V17.6614ZM17.2903 10.1386C17.5391 8.55179 16.233 7.72898 14.4915 7.14126H14.5537L15.1135 4.9667L13.7452 4.61407L13.1854 6.72986C13.0299 6.70047 12.89 6.67109 12.75 6.6417C12.6101 6.61232 12.4702 6.58293 12.3147 6.55354H12.0659L12.6257 4.43776L11.2574 4.08513L10.6976 6.25969H10.511C10.2622 6.20091 9.82687 6.08337 9.82687 6.08337L7.89881 5.61319L7.52564 7.02372L8.52077 7.25881C9.08052 7.37635 9.14272 8.02284 9.14272 8.02284L8.52077 10.4913L7.58783 13.9C7.52564 14.0176 7.33905 14.3114 6.96588 14.1939L5.97076 13.9588L5.28661 15.4281L7.09027 15.8395C7.22359 15.8395 7.33905 15.8733 7.44622 15.9046C7.53904 15.9317 7.62563 15.957 7.71223 15.957C7.83662 16.0158 8.0854 16.0746 8.0854 16.0746L7.52564 18.2491L8.89394 18.6018L9.4537 16.4272C9.82687 16.5448 10.2 16.6623 10.5732 16.7211L10.0135 18.8369L11.3818 19.1895L11.9415 17.0149C14.3049 17.4263 16.0464 17.25 16.7927 15.2518C17.4147 13.6062 16.7927 12.6658 15.5488 12.0781C16.4196 11.843 17.1037 11.3141 17.2903 10.1386ZM14.1183 14.3114C13.7452 15.7807 11.2574 15.193 10.1378 14.8992H10.0756C10.0135 14.8404 9.82687 14.8404 9.82687 14.8404L10.5732 11.9606C10.6976 12.0193 10.822 12.0193 10.9464 12.0193C11.0178 12.0371 11.0936 12.0555 11.1728 12.0747C12.4038 12.3739 14.469 12.8757 14.1183 14.3114ZM11.2176 10.732L11.1952 10.7263V10.6676H10.9464L11.6305 8.08161C11.7549 8.14039 11.8171 8.14039 11.9415 8.14039C12.9366 8.3167 14.9269 8.7281 14.5537 10.1386C14.1835 11.4797 12.1605 10.9697 11.2176 10.732Z" fill="#F8F7E7"/>
</g>
<defs>
<clipPath id="clip0_4_554">
<rect width="167" height="23" fill="white" transform="translate(0 0.5)"/>
</clipPath>
</defs>
</svg>
