<svg width="159" height="40" viewBox="0 0 159 40" fill="none" xmlns="http://www.w3.org/2000/svg">
<g clip-path="url(#clip0_4_552)">
<path fill-rule="evenodd" clip-rule="evenodd" d="M9.32353 2H27.9049L37.2285 11.5042H18.6471L18.5814 11.5716V11.5042L9.32429 2.00079L18.5814 11.5716H0L9.32353 2ZM18.5813 30.6475H37.1627L27.9049 40.1516L9.25787 40.1517L0 30.6474V11.5716L18.5157 11.5716L9.29059 21.0422L9.32353 21.0758V21.1433L18.5813 30.6475ZM27.9049 21.0759L27.8392 21.0758L18.5814 11.5716L37.1627 11.5716L27.9049 21.0759ZM27.9049 21.0759H27.9706L37.2285 30.5801H18.6471L27.9049 21.0759ZM49.0473 24.1765C48.7846 24.4461 48.3907 24.5809 47.931 24.5809L47.8654 24.6483C47.2088 24.6483 46.6835 24.3787 46.4209 23.8395C46.1583 23.2328 46.0269 22.4239 46.0269 21.4129V21.1432C45.9613 20.3344 46.0926 19.5255 46.4209 18.784C46.6835 18.1774 47.1431 17.9078 47.8654 17.9078C48.3907 17.9078 48.719 18.11 48.9816 18.447C49.2442 18.8514 49.3755 19.3907 49.3755 19.8625L52.7898 19.7951C52.8555 18.5144 52.3958 17.1663 51.4766 16.29C50.5574 15.4138 49.3755 15.0093 47.8654 15.0093C46.0926 15.0093 44.7138 15.5486 43.7289 16.6945C42.744 17.8404 42.2844 19.3233 42.2844 21.1432V21.4129C42.1531 23.0306 42.744 24.5809 43.7289 25.8616C44.7138 26.9401 46.0926 27.5468 47.931 27.5468C49.2442 27.5468 50.4917 27.1423 51.4766 26.2661C52.3958 25.4572 52.9211 24.2439 52.8555 22.9632H49.4412C49.4412 23.5024 49.3099 23.9069 49.0473 24.1765ZM59.684 18.447H61.0628L61.4568 15.0093C61.0628 14.8745 60.7345 14.8745 60.4062 14.8745C59.881 14.8745 59.3557 15.0767 58.9617 15.4138C58.5021 15.8182 58.1738 16.29 57.9768 16.8967L57.8455 15.0767H54.3656V27.2771H58.0425V19.2559C58.1738 18.9863 58.3708 18.784 58.6334 18.6492C58.8961 18.5144 59.29 18.447 59.684 18.447ZM68.154 21.9521L68.0883 21.8847L67.957 21.8173L66.1185 15.0093H62.179L66.3155 27.3445L66.0529 28.1534C65.9216 28.4904 65.7246 28.7601 65.462 28.9623C65.1993 29.1645 64.8054 29.2319 64.2144 29.2319L64.0175 29.1645H63.8205L63.3609 31.8607C63.8205 31.9955 64.1488 32.0629 64.3458 32.0629C64.5427 32.1303 64.8054 32.1303 65.1337 32.1303C66.3812 32.1303 67.3004 31.8607 67.8913 31.2541C68.4823 30.6474 68.9419 29.906 69.3358 29.0297L74.0633 15.0767H70.1237L68.154 21.9521ZM81.8766 18.7166C82.2049 19.3233 82.3363 20.1996 82.3363 21.2106L82.2706 21.278V21.4803C82.3363 22.2891 82.2049 23.0306 81.8766 23.7721C81.614 24.3113 81.1544 24.5809 80.4978 24.5809C80.1695 24.5809 79.7756 24.5135 79.4473 24.3787C79.1846 24.2439 78.7907 23.7721 78.7907 23.7721V18.6492C78.922 18.3796 79.1846 18.11 79.4473 17.9752C79.7099 17.8404 80.1039 17.773 80.4978 17.773C81.0888 17.773 81.614 18.11 81.8766 18.7166ZM84.8313 25.7942C85.6192 24.7157 86.0132 23.2328 86.0132 21.4129V21.278C86.0788 19.6603 85.6849 18.0426 84.8313 16.6945C84.0434 15.5486 82.8615 14.9419 81.417 14.9419C80.3008 14.8745 79.2503 15.4812 78.6594 16.4922L78.5281 15.1441H75.0481V31.9281H78.725V26.1987C79.3816 27.0075 80.3665 27.4794 81.417 27.4794C82.7959 27.4794 84.0434 26.8727 84.8313 25.7942ZM92.0538 15.0767V12.0435L91.9881 12.1109H88.2456V15.1441H86.6041V17.773H88.2456V23.3676C88.2456 24.8505 88.5739 25.8616 89.2304 26.5357C89.8214 27.2097 90.7406 27.5468 91.9881 27.5468C92.776 27.5468 93.5639 27.4794 94.2862 27.2771L94.0235 24.4461C93.6952 24.5135 93.3669 24.5135 92.973 24.5135C92.776 24.5135 92.5134 24.4461 92.3164 24.2439C92.1194 24.0417 92.0538 23.7046 92.0538 23.3002V17.7055H94.0892V15.0767H92.0538ZM99.1449 23.7046C98.8166 23.098 98.6853 22.2891 98.6853 21.278V21.0084C98.6853 20.0647 98.8166 19.2559 99.1449 18.6492C99.4732 18.0426 99.9985 17.773 100.721 17.773C101.443 17.773 101.968 18.0426 102.297 18.6492C102.625 19.3907 102.756 20.1996 102.756 21.0084V21.278C102.756 22.2891 102.625 23.098 102.297 23.7046C101.968 24.3113 101.443 24.5809 100.721 24.5809C99.9985 24.5809 99.4732 24.3113 99.1449 23.7046ZM96.5186 16.6271C95.468 17.8404 94.9427 19.4581 95.0084 21.0758H94.9428V21.3454C94.8771 22.9632 95.4024 24.5809 96.4529 25.7942C97.5034 26.8727 98.9479 27.4794 100.721 27.4794C102.494 27.4794 103.938 26.9401 104.923 25.7942C105.908 24.6483 106.433 23.1654 106.433 21.3454V21.0758C106.499 19.4581 105.973 17.8404 104.923 16.6271C103.938 15.4812 102.494 14.8745 100.721 14.8745C98.9479 14.8745 97.5034 15.4812 96.5186 16.6271ZM111.56 15.1441L111.554 15.0767L111.686 15.1441H111.56ZM111.56 15.1441H108.206V27.3445H111.883V18.5818C112.277 18.11 112.868 17.8404 113.459 17.8404C114.049 17.8404 114.443 17.9752 114.706 18.2448C114.969 18.5144 115.1 19.0537 115.1 19.7277V27.2771H118.777V19.7277C118.777 18.0426 118.449 16.8293 117.792 16.0204C117.135 15.2789 116.216 14.8745 115.034 14.8745C114.378 14.8071 113.721 15.0093 113.13 15.3463C112.539 15.6834 112.08 16.1552 111.686 16.7619L111.56 15.1441ZM124.752 18.3796C125.014 17.9752 125.408 17.773 125.934 17.773C126.525 17.773 126.853 17.9078 127.116 18.2448C127.378 18.5818 127.51 19.0537 127.51 19.6603V19.9299H124.292C124.358 19.2559 124.489 18.784 124.752 18.3796ZM121.994 25.7942C123.045 26.9401 124.424 27.4794 126.196 27.4794V27.5468C127.116 27.5468 127.969 27.412 128.823 27.1423C129.545 26.8727 130.267 26.5357 130.858 26.1312L130.005 23.8395C128.954 24.3787 127.838 24.5809 126.722 24.5809C126.065 24.5809 125.474 24.3787 125.08 23.9743C124.621 23.5698 124.424 23.0306 124.292 22.3565H131.121V20.3344C131.186 18.9188 130.727 17.4359 129.742 16.3574C128.823 15.3463 127.575 14.8745 125.934 14.8745C124.161 14.8745 122.848 15.4812 121.863 16.6271C120.878 17.773 120.418 19.2559 120.418 21.1432V21.5477C120.353 23.098 120.944 24.6483 121.994 25.7942ZM142.939 22.1543H142.874H142.808L140.773 15.0767H138.409L136.439 22.1543H136.373L135.06 15.0767H131.646L134.469 27.2771H137.621L139.591 20.8062H139.656L141.626 27.2771H144.778L147.601 15.0767H144.187L142.939 22.1543ZM154.692 23.0306C154.955 23.3002 155.152 23.8395 155.152 23.8395V23.9069C155.152 24.3113 155.021 24.5809 154.758 24.7157C154.495 24.9179 154.101 24.9854 153.642 24.9854C153.051 24.9854 152.591 24.8505 152.263 24.5809C151.935 24.3787 151.738 23.9743 151.738 23.3676L148.389 23.435C148.389 24.4461 148.849 25.4572 149.768 26.2661C150.687 27.1423 151.935 27.5468 153.576 27.5468C154.889 27.6142 156.202 27.2097 157.319 26.4683C158.303 25.7942 158.763 24.8505 158.763 23.7721C158.829 22.761 158.435 21.8847 157.713 21.278C156.728 20.604 155.677 20.1996 154.495 19.9973C153.839 19.9299 153.248 19.7277 152.657 19.3907C152.394 19.1885 152.197 18.9188 152.197 18.5818C152.197 18.2448 152.329 17.9752 152.591 17.773C152.854 17.5033 153.182 17.4359 153.576 17.4359C154.101 17.4359 154.43 17.5707 154.692 17.8404C154.955 18.11 155.086 18.447 155.086 18.9188L158.697 18.8514C158.697 17.7055 158.172 16.6271 157.319 16.0204C156.334 15.2789 155.086 14.9419 153.51 14.9419C152.066 14.9419 150.818 15.2789 149.965 16.0204C149.111 16.6271 148.652 17.6381 148.652 18.7166C148.652 19.6603 148.98 20.5366 149.702 21.1432C150.621 21.8173 151.738 22.2217 152.854 22.4239C153.51 22.4913 154.101 22.6936 154.692 23.0306Z" fill="#F8F7E7"/>
</g>
<defs>
<clipPath id="clip0_4_552">
<rect width="159" height="39" fill="white" transform="translate(0 0.5)"/>
</clipPath>
</defs>
</svg>
