<svg width="127" height="30" viewBox="0 0 127 30" fill="none" xmlns="http://www.w3.org/2000/svg">
<g clip-path="url(#clip0_4_515)">
<mask id="mask0_4_515" style="mask-type:luminance" maskUnits="userSpaceOnUse" x="0" y="0" width="127" height="30">
<path d="M127 0H0V30H127V0Z" fill="white"/>
</mask>
<g mask="url(#mask0_4_515)">
<mask id="mask1_4_515" style="mask-type:luminance" maskUnits="userSpaceOnUse" x="0" y="0" width="127" height="30">
<path d="M126.555 0.745239H0V29.2548H126.555V0.745239Z" fill="white"/>
</mask>
<g mask="url(#mask1_4_515)">
<path d="M20.2714 8.10343H19.6585L18.6607 6.68521C16.9753 4.30843 15.7103 3.54238 12.3003 3.54238H11.8407C10.1553 3.54238 9.00426 3.73488 8.08497 3.92345V14.7309L10.6543 14.6562C14.6771 14.5423 15.4039 13.9294 15.7496 11.6666L15.9028 10.6334H16.5942C16.5942 11.4387 16.5196 13.8509 16.5196 15.2691C16.5196 16.7266 16.5942 19.0994 16.5942 19.9048H15.9028L15.7889 19.178C15.4039 16.8012 14.791 16.0744 10.6543 15.9605L8.08497 15.8819V22.203C8.08497 26.9919 8.50533 27.5655 10.9607 27.9898L12.3396 28.2176V28.7912C11.6128 28.7912 7.35819 28.7165 5.93998 28.7165C4.52177 28.7165 0.805355 28.7951 0 28.7951V28.2215L1.33964 27.9937C3.21749 27.6873 3.5632 26.7287 3.5632 22.2069V9.09735C3.5632 4.57558 3.21749 3.61702 1.33964 3.31059L0 3.08273V2.50916C0.805355 2.50916 5.86141 2.58774 7.27962 2.58774C8.69783 2.58774 15.2114 2.54845 15.9774 2.54845H19.1203L20.2714 8.10343Z" fill="white"/>
<path d="M30.4621 28.7952C29.5428 28.7952 27.4332 28.7559 25.7871 28.7559C24.1018 28.7559 21.8389 28.7952 20.9589 28.7952V28.2217L21.6857 28.1077C23.2571 27.8759 23.5636 27.3024 23.5636 23.6252V15.6503C23.5636 13.6585 23.2571 13.081 21.8782 12.4681L20.9197 12.0478V11.5881L27.3193 10.2092L27.8182 10.5156V23.6213C27.8182 27.2984 28.1246 27.8367 29.7353 28.1038L30.4621 28.2177V28.7952ZM25.3275 7.06633C23.7954 7.06633 22.6443 5.99383 22.6443 4.53634C22.6443 3.11813 23.7954 2.00635 25.3275 2.00635C26.8989 2.00635 28.05 3.11813 28.05 4.53634C28.0461 5.99383 26.8989 7.06633 25.3275 7.06633Z" fill="white"/>
<path d="M52.5327 28.7952C51.688 28.7952 49.5037 28.7559 47.8577 28.7559C46.247 28.7559 44.0627 28.7952 43.1434 28.7952V28.2216L43.7563 28.1077C45.4023 27.8013 45.7088 27.3024 45.7088 23.9317V16.6874C45.7088 13.8903 44.483 12.5113 42.338 12.5113C40.8452 12.5113 39.5802 13.0849 38.4684 13.9295V23.9317C38.4684 27.3024 38.7356 27.8013 40.4209 28.1077L41.0338 28.2216V28.7952C40.1145 28.7952 37.9695 28.7559 36.3195 28.7559C34.6695 28.7559 32.4892 28.7952 31.6052 28.7952V28.2216L32.332 28.1077C33.8641 27.8759 34.1706 27.3024 34.1706 23.6252V15.611C34.1706 13.6192 33.8249 13.081 32.4852 12.4288L31.5659 11.9692V11.5488L37.9656 10.1306L38.4645 10.4763V13.0456C40.4956 11.321 42.3734 10.1699 44.7502 10.1699C48.1602 10.1699 49.9987 12.0085 49.9987 15.8781V23.6174C49.9987 27.3731 50.3052 27.8327 51.8766 28.0999L52.5287 28.2138V28.7952H52.5327Z" fill="white"/>
<path d="M62.7234 28.9483C60.4999 28.9483 58.5474 28.4101 57.2038 27.8366L55.6717 29.2548H55.212V6.22558C55.212 4.2338 54.8663 3.66023 53.566 3.04345L52.6074 2.5838V2.16345L59.0031 0.745239L59.502 1.09095V12.7784C61.1481 11.207 62.6056 10.1738 65.1356 10.1738C69.5788 10.1738 72.5684 13.737 72.5684 18.6044C72.5684 25.1141 68.3924 28.9483 62.7234 28.9483ZM62.6056 12.5466C61.3013 12.5466 60.4999 12.853 59.502 13.5798V22.698C59.502 26.2612 61.1481 27.9466 63.6034 27.9466C66.5931 27.9466 68.4709 25.5698 68.4709 21.0873C68.4709 15.9566 66.0941 12.5466 62.6056 12.5466Z" fill="white"/>
<path d="M84.3305 29.1762C79.0034 29.1762 75.0591 25.8055 75.0591 19.4805C75.0591 14.1534 78.8894 10.0559 84.3698 10.0559C89.6576 10.0559 93.6412 13.4266 93.6412 19.7516C93.6412 25.0787 89.7715 29.1762 84.3305 29.1762ZM83.8316 11.0145C81.2269 11.0145 79.7301 13.0063 79.7301 18.408C79.7301 24.348 81.6473 28.2176 84.8255 28.2176C87.4694 28.2176 88.9269 26.2259 88.9269 20.8241C88.9308 14.8841 87.053 11.0145 83.8316 11.0145Z" fill="white"/>
<path d="M104.83 28.7951C103.95 28.7951 101.84 28.7558 100.194 28.7558C98.5086 28.7558 96.2457 28.7951 95.3657 28.7951V28.2216L96.0925 28.1076C97.6247 27.8758 97.9311 27.3023 97.9311 23.6251V6.22558C97.9311 4.2338 97.5854 3.66023 96.285 3.04345L95.3264 2.5838V2.16345L101.726 0.745239L102.225 1.09095V23.6212C102.225 27.2983 102.531 27.8758 104.103 28.1037L104.83 28.2176V28.7951Z" fill="white"/>
<path d="M126.555 28.7951C124.983 28.7951 121.652 28.7951 120.041 28.8737L119.695 26.4616C118.049 28.033 116.631 29.0662 114.101 29.0662C109.658 29.0662 106.629 25.503 106.629 20.6355C106.629 14.122 110.805 10.2877 116.513 10.2877C117.739 10.2877 118.851 10.4016 119.695 10.5941V6.37879C119.695 4.38701 119.275 3.73487 117.857 3.04345L116.937 2.5838V2.16345L123.49 0.745239L123.989 1.09095V23.6212C123.989 27.3769 124.296 27.8366 125.906 28.1037L126.558 28.2176V28.7951H126.555ZM119.695 16.5341C119.695 12.9709 118.085 11.2462 115.633 11.2462C112.644 11.2462 110.766 13.6584 110.766 18.1448C110.766 23.2794 113.142 26.6894 116.627 26.6894C117.892 26.6894 118.733 26.383 119.691 25.6562V16.5341H119.695Z" fill="white"/>
</g>
</g>
</g>
<defs>
<clipPath id="clip0_4_515">
<rect width="127" height="30" fill="white"/>
</clipPath>
</defs>
</svg>
