<svg width="195" height="32" viewBox="0 0 195 32" fill="none" xmlns="http://www.w3.org/2000/svg">
<g clip-path="url(#clip0_4_531)">
<mask id="mask0_4_531" style="mask-type:luminance" maskUnits="userSpaceOnUse" x="0" y="0" width="195" height="32">
<path d="M195 0H0V32H195V0Z" fill="white"/>
</mask>
<g mask="url(#mask0_4_531)">
<path d="M8.40505 12.1727V27.9366H4.13867V12.1727H8.40505Z" fill="white"/>
<path d="M15.1813 13.0061C16.3654 12.1033 17.6533 11.6519 19.0449 11.6519C20.0214 11.6519 20.9675 11.8371 21.883 12.2075C22.7986 12.5779 23.5737 13.0929 24.2085 13.7526C24.8554 14.4008 25.3193 15.1762 25.6001 16.079C25.893 16.9818 26.0395 18.1103 26.0395 19.4644V27.9367H21.7732V19.7249C21.7732 17.954 21.4985 16.7735 20.9492 16.1832C20.4121 15.6161 19.6735 15.3325 18.7336 15.3325C17.5007 15.3325 16.5729 15.6971 15.9504 16.4262C15.4377 17.0281 15.1813 18.2376 15.1813 20.0547V27.9367H10.915V12.1728H15.1813V13.0061Z" fill="white"/>
<path d="M39.8655 15.3846L36.5513 16.9471C36.063 16.2989 35.6419 15.8591 35.2879 15.6276C34.9339 15.3846 34.5127 15.2631 34.0244 15.2631C33.4995 15.2631 33.0784 15.3788 32.761 15.6103C32.4558 15.8418 32.3032 16.1485 32.3032 16.5304C32.3032 16.8776 32.4131 17.1323 32.6328 17.2943C32.8648 17.4563 33.4568 17.711 34.4089 18.0582L35.9287 18.5964C37.003 18.9899 37.8635 19.4413 38.5105 19.9506C39.4993 20.726 39.9937 21.7677 39.9937 23.0756C39.9937 24.6612 39.3345 25.9806 38.0161 27.0339C36.8565 27.983 35.4404 28.4575 33.7681 28.4575C31.5464 28.4575 29.813 27.6531 28.5679 26.0443C28.1284 25.4772 27.6951 24.6496 27.2678 23.5617L30.7468 22.2422C31.2717 23.226 31.7478 23.9031 32.1751 24.2735C32.6145 24.6323 33.1516 24.8117 33.7864 24.8117C34.3723 24.8117 34.8423 24.6612 35.1963 24.3603C35.5503 24.0593 35.7273 23.6658 35.7273 23.1797C35.7273 22.8441 35.5991 22.5837 35.3428 22.3985C35.0864 22.2017 34.5066 21.9413 33.6033 21.6172L31.9187 21.0096C29.4407 20.1068 28.2016 18.6485 28.2016 16.6346C28.2016 15.1184 28.8181 13.8857 30.051 12.9367C31.1863 12.0802 32.523 11.6519 34.061 11.6519C35.3672 11.6519 36.478 11.9471 37.3936 12.5374C38.3213 13.1276 39.1453 14.0767 39.8655 15.3846Z" fill="white"/>
<path d="M45.6899 12.1727V27.9366H41.4236V12.1727H45.6899Z" fill="white"/>
<path d="M64.6062 27.9366H60.3398V26.9296C58.9238 27.9481 57.4345 28.4574 55.872 28.4574C53.2841 28.4574 51.1235 27.5373 49.3901 25.697C47.8886 24.1113 47.1379 22.2248 47.1379 20.0373C47.1379 17.5025 48.1083 15.4134 50.0492 13.7699C51.7094 12.3579 53.6503 11.6518 55.872 11.6518C57.4345 11.6518 58.9238 12.1611 60.3398 13.1796V4.23865H64.6062V27.9366ZM55.872 15.3324C54.4682 15.3324 53.3268 15.8648 52.4479 16.9296C51.7887 17.7398 51.4592 18.7757 51.4592 20.0373C51.4592 21.5187 51.9047 22.6877 52.7958 23.5442C53.6503 24.366 54.7001 24.7768 55.9453 24.7768C57.3979 24.7768 58.5454 24.2444 59.3877 23.1796C60.0346 22.3463 60.3581 21.293 60.3581 20.0199C60.3581 18.5731 59.9248 17.4157 59.0581 16.5477C58.2402 15.7375 57.1782 15.3324 55.872 15.3324Z" fill="white"/>
<path d="M70.4304 21.5651C70.6746 22.4216 71.0286 23.0871 71.4924 23.5617C72.3103 24.3834 73.3418 24.7943 74.5869 24.7943C76.0396 24.7943 77.2176 24.3603 78.1209 23.4922C78.2918 23.3186 78.5725 22.9482 78.9632 22.3811L82.5887 23.8047C81.7586 25.101 80.9407 26.0559 80.135 26.6693C78.5603 27.8614 76.7171 28.4575 74.6052 28.4575C71.9685 28.4575 69.8262 27.5374 68.1782 25.6971C66.75 24.1114 66.0359 22.2249 66.0359 20.0374C66.0359 18.5443 66.396 17.1612 67.1162 15.8881C67.873 14.5339 68.9228 13.4806 70.2656 12.7283C71.5474 12.0107 72.9329 11.6519 74.4221 11.6519C76.8513 11.6519 78.835 12.4737 80.3731 14.1172C81.9112 15.7492 82.6802 17.8556 82.6802 20.4367C82.6802 20.6681 82.6741 21.0443 82.6619 21.5651H70.4304ZM78.4138 18.5443C77.6814 16.3337 76.3508 15.2283 74.4221 15.2283C73.4212 15.2283 72.5728 15.5177 71.877 16.0964C71.1934 16.6635 70.7112 17.4795 70.4304 18.5443H78.4138Z" fill="white"/>
<path d="M90.9248 28.4445V4.74658H95.1912V13.6876C96.6072 12.669 98.0965 12.1598 99.659 12.1598C102.247 12.1598 104.408 13.0741 106.141 14.9028C107.642 16.4885 108.393 18.3693 108.393 20.5452C108.393 23.0915 107.423 25.1922 105.482 26.8473C103.822 28.2593 101.881 28.9653 99.659 28.9653C98.0965 28.9653 96.6072 28.4561 95.1912 27.4376V28.4445H90.9248ZM99.4942 15.8403C98.1026 15.8403 96.9856 16.3727 96.1433 17.4376C95.4964 18.2593 95.1729 19.2952 95.1729 20.5452C95.1729 22.0151 95.6062 23.1841 96.4729 24.0521C97.303 24.8739 98.3406 25.2848 99.5857 25.2848C101.038 25.2848 102.204 24.7466 103.083 23.6702C103.742 22.86 104.072 21.8183 104.072 20.5452C104.072 19.0753 103.626 17.9121 102.735 17.0556C101.893 16.2454 100.813 15.8403 99.4942 15.8403Z" fill="white"/>
<path d="M114.089 12.6805V28.4444H109.823V12.6805H114.089Z" fill="white"/>
<path d="M121.049 16.3264V23.3577C121.049 23.948 121.104 24.3531 121.213 24.573C121.336 24.7929 121.561 24.9028 121.891 24.9028C122.306 24.9028 122.959 24.7697 123.85 24.5035V28.3403C122.935 28.6065 122.111 28.7396 121.378 28.7396C119.901 28.7396 118.766 28.2767 117.973 27.3507C117.179 26.4132 116.782 25.0822 116.782 23.3577V16.3264H115.043V12.6806H116.782V9.29519L121.049 7.71533V12.6806H123.612V16.3264H121.049Z" fill="white"/>
<path d="M136.98 18.0452C136.04 17.1193 135.308 16.5232 134.783 16.257C134.258 15.9792 133.581 15.8403 132.751 15.8403C131.213 15.8403 130.016 16.3727 129.162 17.4376C128.503 18.2477 128.173 19.2836 128.173 20.5452C128.173 22.0267 128.619 23.1957 129.51 24.0521C130.352 24.8739 131.438 25.2848 132.769 25.2848C133.599 25.2848 134.331 25.117 134.966 24.7813C135.601 24.4341 136.303 23.8264 137.072 22.9584L139.928 25.5626C138.769 26.7778 137.633 27.6517 136.523 28.1841C135.412 28.7049 134.154 28.9653 132.751 28.9653C130.028 28.9653 127.807 28.051 126.086 26.2223C124.596 24.6251 123.852 22.7385 123.852 20.5626C123.852 18.0163 124.822 15.9156 126.763 14.2605C128.411 12.86 130.407 12.1598 132.751 12.1598C134.118 12.1598 135.345 12.4144 136.431 12.9237C137.53 13.4214 138.659 14.2605 139.819 15.441L136.98 18.0452Z" fill="white"/>
<path d="M148.261 12.1598C150.812 12.1598 152.955 13.0741 154.688 14.9028C156.19 16.4885 156.94 18.3693 156.94 20.5452C156.94 23.0915 155.97 25.1922 154.029 26.8473C152.381 28.2593 150.41 28.9653 148.115 28.9653C145.441 28.9653 143.238 28.051 141.505 26.2223C140.015 24.6366 139.271 22.7269 139.271 20.4931C139.271 18.0047 140.241 15.9329 142.182 14.2778C143.83 12.8658 145.856 12.1598 148.261 12.1598ZM148.023 15.8403C146.607 15.8403 145.46 16.3727 144.581 17.4376C143.922 18.2477 143.592 19.2836 143.592 20.5452C143.592 22.0267 144.038 23.1957 144.929 24.0521C145.783 24.8739 146.845 25.2848 148.115 25.2848C149.592 25.2848 150.764 24.7466 151.63 23.6702C152.29 22.86 152.619 21.8183 152.619 20.5452C152.619 19.0753 152.174 17.9121 151.282 17.0556C150.44 16.2454 149.354 15.8403 148.023 15.8403Z" fill="white"/>
<path d="M162.618 12.6805V28.4444H158.352V12.6805H162.618Z" fill="white"/>
<path d="M169.395 13.5139C170.579 12.6112 171.867 12.1598 173.258 12.1598C174.235 12.1598 175.181 12.345 176.096 12.7153C177.012 13.0857 177.787 13.6007 178.422 14.2605C179.069 14.9086 179.533 15.6841 179.813 16.5869C180.106 17.4896 180.253 18.6181 180.253 19.9723V28.4445H175.986V20.2327C175.986 18.4619 175.712 17.2813 175.162 16.691C174.625 16.1239 173.887 15.8403 172.947 15.8403C171.714 15.8403 170.786 16.2049 170.164 16.9341C169.651 17.5359 169.395 18.7454 169.395 20.5626V28.4445H165.128V12.6806H169.395V13.5139Z" fill="white"/>
<path d="M194.079 15.8924L190.765 17.4549C190.276 16.8068 189.855 16.367 189.501 16.1355C189.147 15.8924 188.726 15.7709 188.238 15.7709C187.713 15.7709 187.292 15.8866 186.974 16.1181C186.669 16.3496 186.516 16.6563 186.516 17.0382C186.516 17.3855 186.626 17.6401 186.846 17.8021C187.078 17.9642 187.67 18.2188 188.622 18.566L190.142 19.1042C191.216 19.4977 192.077 19.9491 192.724 20.4584C193.713 21.2339 194.207 22.2755 194.207 23.5834C194.207 25.169 193.548 26.4885 192.229 27.5417C191.07 28.4908 189.654 28.9653 187.981 28.9653C185.76 28.9653 184.026 28.1609 182.781 26.5521C182.342 25.985 181.908 25.1575 181.481 24.0695L184.96 22.7501C185.485 23.7339 185.961 24.4109 186.388 24.7813C186.828 25.1401 187.365 25.3195 188 25.3195C188.586 25.3195 189.056 25.169 189.41 24.8681C189.764 24.5672 189.941 24.1737 189.941 23.6876C189.941 23.3519 189.812 23.0915 189.556 22.9063C189.3 22.7095 188.72 22.4491 187.817 22.1251L186.132 21.5174C183.654 20.6146 182.415 19.1563 182.415 17.1424C182.415 15.6262 183.031 14.3936 184.264 13.4445C185.4 12.588 186.736 12.1598 188.274 12.1598C189.58 12.1598 190.691 12.4549 191.607 13.0452C192.535 13.6355 193.359 14.5845 194.079 15.8924Z" fill="white"/>
</g>
</g>
<defs>
<clipPath id="clip0_4_531">
<rect width="195" height="32" fill="white"/>
</clipPath>
</defs>
</svg>
