<svg width="154" height="38" viewBox="0 0 154 38" fill="none" xmlns="http://www.w3.org/2000/svg">
<g clip-path="url(#clip0_4_550)">
<path fill-rule="evenodd" clip-rule="evenodd" d="M0.0690688 26.4964C0.103603 26.9727 0.138138 27.4489 0.138138 27.8911V27.9592H0.690688C0.863359 27.7211 1.0015 27.4999 1.13963 27.2788C1.27777 27.0577 1.41591 26.8366 1.58858 26.5985C4.02017 23.17 6.51758 19.7091 8.98993 16.283C10.0991 14.7458 11.2033 13.2157 12.2942 11.6986C12.5014 11.4945 12.9849 11.1543 12.9849 11.1543H19.3393C14.5735 17.7538 9.87683 24.2852 5.24923 30.7487C5.24923 30.8167 5.38736 30.9528 5.38736 30.9528C6.65564 31.6387 7.93287 32.3422 9.21905 33.0507L9.22059 33.0515C11.5061 34.3104 13.82 35.585 16.1621 36.8039C16.5074 37.008 17.1981 37.008 17.5435 36.8039C20.4985 35.0989 23.4793 33.4194 26.4702 31.7343C28.3728 30.6623 30.2794 29.588 32.186 28.5035C32.7386 28.1633 33.0839 27.619 33.0839 26.9386C33.1054 26.389 33.1335 25.8263 33.1621 25.2544C33.2255 23.9859 33.2911 22.6728 33.2911 21.3597C33.268 20.2662 33.2526 19.165 33.2372 18.0613C33.2066 15.869 33.1758 13.6667 33.0839 11.4945C33.0839 10.8141 33.0149 10.2698 32.8767 9.4534C32.6005 9.79356 32.5314 9.86161 32.3933 9.99767C29.6996 13.8248 26.8892 17.7668 24.0789 21.7087C23.1422 23.0225 22.2055 24.3364 21.2732 25.646C20.9278 26.1222 20.5825 26.3263 20.0299 26.3263H14.9189C14.8152 26.3263 14.6944 26.2923 14.5735 26.2583C14.4526 26.2243 14.3318 26.1902 14.2282 26.1902C18.1749 20.5617 22.1719 14.9827 26.1334 9.45321L26.1358 9.44994L26.1463 9.43525L26.1551 9.4229L26.1758 9.394L26.1869 9.37856L26.193 9.37004C26.8565 8.44393 27.519 7.51922 28.1801 6.59589C28.0957 6.51283 28.0457 6.44104 28.0068 6.3851C27.95 6.30357 27.9166 6.25571 27.8347 6.25571C26.6605 5.62071 25.4864 4.97059 24.3122 4.32047C21.9639 3.02023 19.6155 1.71998 17.2672 0.540691C16.7837 0.472655 16.1621 0.472655 15.6786 0.676763C13.6362 1.78476 11.5937 2.93025 9.55131 4.07574C6.82803 5.60307 4.10466 7.13046 1.38138 8.56893C0.345344 9.18126 0 9.92965 0 10.9502V25.1017C0 25.5439 0.0345344 26.0202 0.0690688 26.4964ZM126.05 22.5162C126.119 20.4752 125.36 19.0464 123.426 18.23C123.447 18.2197 123.466 18.211 123.484 18.2031C123.498 18.197 123.512 18.1914 123.525 18.186C123.606 18.1522 123.67 18.1255 123.771 18.0259C125.291 17.2094 125.843 15.7807 125.498 14.2158C125.152 12.7191 123.978 11.8346 122.528 11.6305C121.472 11.4137 120.331 11.3903 119.178 11.3667C118.522 11.3532 117.861 11.3397 117.21 11.2903H113.687C113.549 11.5624 113.549 11.7666 113.549 11.7666V25.3057C113.549 25.9861 113.894 25.9861 114.378 25.9861H120.387C121.285 25.9861 122.044 25.9861 122.873 25.782C124.6 25.3057 125.912 23.945 126.05 22.5162ZM118.517 23.0912C118.041 23.076 117.56 23.0605 117.071 23.0605C117.071 22.0626 117.074 21.0633 117.21 19.9989C118.591 19.9989 120.041 20.0669 121.423 20.203C122.182 20.271 122.666 20.8153 122.666 21.6318C122.528 22.3802 121.975 22.9244 121.285 23.0605C120.369 23.1507 119.453 23.1213 118.517 23.0912ZM118.315 17.1716C117.9 17.1565 117.486 17.1414 117.071 17.1414H117.002V14.2158C117.419 14.2158 117.844 14.2005 118.266 14.1853C119.103 14.1552 119.929 14.1254 120.663 14.2158C121.354 14.3519 122.044 14.6921 122.044 15.5766C122.044 16.461 121.699 17.0053 120.801 17.1414C119.972 17.2321 119.143 17.2019 118.315 17.1716ZM85.2311 11.4266C85.8527 13.3996 86.4571 15.3556 87.0614 17.3117C87.6658 19.2677 88.2701 21.2238 88.8918 23.1968H89.099C89.7206 21.2238 90.3249 19.2677 90.9293 17.3117L90.9304 17.3079C91.5344 15.3532 92.1384 13.3984 92.7596 11.4266H94.9007C94.4219 12.7787 93.9726 14.1308 93.5255 15.4762C93.0052 17.0418 92.488 18.5984 91.9308 20.1352C91.7281 20.7592 91.5068 21.374 91.2839 21.9931C90.8994 23.0616 90.5102 24.1428 90.2041 25.3059C90.0263 26.1815 89.3909 26.1556 88.7777 26.1306C88.6763 26.1265 88.5754 26.1223 88.4773 26.1223C87.9248 26.1223 87.5794 25.9182 87.4413 25.3059C86.4053 21.7 85.3002 18.2302 84.0569 14.3521C83.5735 15.5768 83.2281 16.7334 82.9518 17.6859C82.5374 18.9786 82.1403 20.2372 81.7431 21.4959C81.346 22.7546 80.9488 24.0132 80.5344 25.3059C80.3963 25.8502 80.051 26.1223 79.4984 26.1223C79.3269 26.0801 79.1287 26.0969 78.9308 26.1136C78.4911 26.1508 78.0527 26.1879 77.9098 25.5781C77.1158 23.2315 76.3562 20.9019 75.5967 18.5723L75.596 18.5704L75.5954 18.5686C74.8359 16.2392 74.0762 13.9091 73.2822 11.5627C73.3631 11.5627 73.3967 11.516 73.4244 11.4773C73.4441 11.4499 73.4608 11.4266 73.4894 11.4266C75.4233 11.2905 75.5615 11.2905 76.114 13.1275C76.2376 13.5169 76.3611 13.9053 76.4844 14.293L76.4851 14.2951C77.3956 17.1581 78.2934 19.981 79.084 22.8566C79.084 22.9215 79.1154 22.971 79.1558 23.0345C79.2001 23.1041 79.2551 23.1906 79.2912 23.3329C79.8642 21.4138 80.4583 19.5363 81.0502 17.6659C81.5285 16.1546 82.0054 14.6477 82.4684 13.1275C82.5929 12.7902 82.6846 12.5159 82.7591 12.2932C82.9254 11.7962 83.0056 11.5565 83.1716 11.4484C83.3262 11.3477 83.5553 11.3612 83.9977 11.3874C84.284 11.4044 84.6595 11.4266 85.162 11.4266H85.2311ZM152.849 22.3804C152.538 22.0402 152.228 21.7 151.882 21.3598C148.567 23.605 146.495 23.605 144.699 21.4959C143.318 19.863 143.456 17.1416 144.906 15.5768C145.597 14.7603 146.495 14.3521 147.531 14.2161C149.258 13.9439 150.639 14.7603 151.882 15.985C152.041 15.7975 152.199 15.6136 152.356 15.4316C152.883 14.8212 153.391 14.2326 153.816 13.6037C150.915 10.338 145.459 10.27 142.42 13.2635C139.45 16.3252 139.45 21.4959 143.11 24.4895C146.288 27.0748 151.122 26.6666 153.816 23.4009C153.471 23.0607 153.16 22.7205 152.849 22.3804ZM46.8287 15.1006V25.9864H44.7566V11.4947C46.138 11.1545 47.0359 11.4947 47.7957 12.5833C49.2398 14.6942 50.8097 16.8051 52.4416 18.9995C53.2292 20.0585 54.0313 21.1371 54.8407 22.2444V11.3586H56.9127V25.7822C55.4623 26.2585 55.1169 25.9864 54.2881 24.8978C53.9065 24.3823 53.5267 23.8702 53.1485 23.3604C51.1311 20.6407 49.1626 17.9869 47.2431 15.2367C47.1772 15.2367 47.127 15.2057 47.0626 15.1659C46.9919 15.1223 46.9041 15.0681 46.7596 15.0326L46.8287 15.1006ZM63.0597 19.5907H70.1048L70.0357 19.5226C70.0357 18.8423 70.0357 18.23 70.1738 17.4135H63.1288V13.0592H71.0717V11.2903H60.9877V25.85H71.2099V23.945H63.0597V19.5907ZM139.588 11.2905L139.726 11.4946C139.864 13.3542 138.989 14.2841 137.101 14.2841H135.375V25.8502H131.99V14.2841H128.468C127.639 14.2841 127.432 14.08 127.432 13.2635C127.432 11.9028 128.122 11.2224 129.504 11.2224H139.588V11.2905ZM96.2929 23.0716C96.178 23.282 96.0573 23.5033 95.9365 23.7411H95.7984C97.8705 25.6461 100.288 26.3945 102.982 26.1904C104.639 25.9863 106.159 25.1699 106.711 23.6051C107.54 21.3599 107.057 19.4549 104.225 18.3663C103.534 18.0942 102.861 17.839 102.187 17.5839C101.514 17.3288 100.84 17.0736 100.15 16.8015C99.3209 16.4613 98.9065 15.849 99.1137 15.0325C99.3209 14.4882 99.8735 14.012 100.357 13.6718C100.702 13.4677 101.255 13.3316 101.738 13.4677C102.619 13.5978 103.499 13.8383 104.397 14.0838C104.908 14.2235 105.425 14.3648 105.952 14.4882C106.109 14.2165 106.244 13.9227 106.395 13.5941C106.509 13.3467 106.632 13.0796 106.78 12.7873C104.639 11.5627 102.36 11.0184 99.8735 11.6988C98.0777 12.107 96.9726 13.3316 96.8344 14.6923C96.6272 17.0736 97.5251 18.1622 99.4591 18.9786C99.9263 19.1411 100.405 19.2927 100.889 19.4465C101.623 19.6791 102.371 19.9165 103.12 20.2033C103.879 20.5434 104.57 20.9517 104.708 21.9722C104.846 23.0608 103.879 23.9452 102.429 24.0813C100.219 24.2174 98.423 23.401 96.8344 21.9722C96.6997 22.3262 96.5065 22.6802 96.2929 23.0716Z" fill="#F8F7E7"/>
</g>
<defs>
<clipPath id="clip0_4_550">
<rect width="154" height="37" fill="white" transform="translate(0 0.5)"/>
</clipPath>
</defs>
</svg>
