<svg width="200" height="40" viewBox="0 0 200 40" fill="none" xmlns="http://www.w3.org/2000/svg">
<g clip-path="url(#clip0_4_556)">
<path fill-rule="evenodd" clip-rule="evenodd" d="M22.7558 14.0772L22.1118 13.8425L5.19994 7.71566L13.1413 4.74555L13.4964 4.87194L14.1614 5.11569L22.7708 8.23022L29.7643 10.752L30.4173 10.9867L30.8265 11.1341L23.3937 13.8425L22.7558 14.0772ZM18.3804 7.65246L16.6771 6.94528L14.6369 7.66749L16.3401 8.37767L18.3804 7.65246ZM16.8758 9.67771L15.4734 9.09386L13.8003 9.68973L15.1966 10.2795L16.8758 9.67771ZM20.4868 9.07583L19.0845 8.49205L17.4054 9.09386L18.8077 9.67771L20.4868 9.07583ZM14.9709 6.19299L13.5415 5.60619L11.8865 6.20202L13.3128 6.79483L14.9709 6.19299ZM11.8835 7.05665L8.96751 8.08278L11.399 9.09386L14.3149 8.06474L11.8835 7.05665ZM8.67562 3.74649L10.2885 3.20483L11.6457 3.75853L10.0298 4.30319L8.67562 3.74649ZM5.53096 4.52287L3.35228 3.62913L5.95227 2.75946L8.13092 3.6502L5.53096 4.52287ZM3.2289 4.51685L5.13074 5.29625L2.86178 6.05758L0.959944 5.27819L3.2289 4.51685ZM1.88378 2.10646L3.46362 2.75344L1.57985 3.38538L0 2.7384L1.88378 2.10646ZM5.93417 0.929849L6.97539 1.35716L5.73559 1.77243L4.69741 1.34813L5.93417 0.929849ZM2.01618 0L3.05437 0.424301L1.81757 0.842583L0.776379 0.415273L2.01618 0ZM117.45 33.3785C112.77 33.3785 110.327 30.2218 110.327 25.9577V23.5503C110.327 19.2863 112.77 16.1265 117.45 16.1265C122.13 16.1265 124.582 19.2802 124.582 23.5443V25.9517C124.582 30.2218 122.13 33.3785 117.45 33.3785ZM120.64 23.5443C120.64 21.0978 119.538 19.518 117.45 19.518C115.362 19.518 114.26 21.0978 114.26 23.5443V25.9517C114.26 28.3952 115.364 29.975 117.45 29.975C119.535 29.975 120.64 28.3952 120.64 25.9517V23.5443ZM134.738 33.3785C133.781 33.3709 132.825 33.3016 131.876 33.1708V38.449C131.876 38.6086 131.813 38.7617 131.7 38.8746C131.587 38.9874 131.434 39.0509 131.275 39.0509H128.533C128.374 39.0509 128.22 38.9874 128.108 38.8746C127.994 38.7617 127.931 38.6086 127.931 38.449V17.7004C127.931 17.255 128.051 17.0745 128.738 16.8969C130.696 16.3999 132.708 16.1393 134.729 16.1205C139.526 16.1205 141.852 18.9522 141.852 23.6015V25.8975C141.861 30.5468 139.535 33.3785 134.738 33.3785ZM137.925 23.6015C137.925 21.158 137.299 19.3404 134.738 19.3404C133.78 19.3314 132.823 19.4009 131.876 19.548V29.9509C132.825 30.0767 133.781 30.1471 134.738 30.1616C137.299 30.1616 137.925 28.3561 137.925 25.8975V23.6015ZM158.285 26.1082H148.565V26.1954C148.565 27.9258 149.282 29.981 152.143 29.981C154.319 29.981 156.375 29.8035 157.626 29.6801H157.717C158.017 29.6801 158.252 29.8306 158.252 30.1285V32.0965C158.252 32.572 158.165 32.7796 157.626 32.8699C155.724 33.2497 153.785 33.4192 151.846 33.3755C148.864 33.3755 144.624 31.7686 144.624 25.8945V23.6917C144.624 19.0425 147.218 16.1205 151.779 16.1205C156.341 16.1205 158.887 19.2591 158.887 23.6917V25.3619C158.887 25.8373 158.701 26.1082 158.285 26.1082ZM154.915 23.1862C154.915 20.8601 153.633 19.518 151.786 19.518C149.938 19.518 148.596 20.83 148.596 23.1862V23.3036H154.915V23.1862ZM174.764 32.6051C172.804 33.0996 170.793 33.3593 168.773 33.3785C163.958 33.3785 161.65 30.5468 161.65 25.8975V23.6015C161.65 18.9522 163.973 16.1205 168.773 16.1205C169.73 16.1294 170.686 16.1998 171.634 16.3312V11.053C171.634 10.8934 171.698 10.7403 171.81 10.6274C171.924 10.5146 172.076 10.4512 172.236 10.4512H174.977C175.137 10.4512 175.29 10.5146 175.403 10.6274C175.516 10.7403 175.579 10.8934 175.579 11.053V31.8167C175.57 32.247 175.438 32.4276 174.764 32.6051ZM171.634 19.5601C170.685 19.4367 169.729 19.3674 168.773 19.3524C166.209 19.3524 165.582 21.158 165.582 23.6135V25.9095C165.582 28.3531 166.209 30.1736 168.773 30.1736C169.731 30.1833 170.688 30.1129 171.634 29.963V19.5601ZM182.961 14.0953H180.069C179.907 14.0955 179.751 14.0328 179.635 13.9206C179.518 13.8084 179.45 13.6553 179.443 13.4935V10.8755C179.449 10.7134 179.517 10.5598 179.634 10.4475C179.751 10.3351 179.907 10.2728 180.069 10.2736H182.961C183.121 10.2736 183.274 10.337 183.387 10.4499C183.499 10.5627 183.563 10.7158 183.563 10.8755V13.4995C183.561 13.658 183.497 13.8096 183.384 13.9211C183.272 14.0328 183.119 14.0953 182.961 14.0953ZM182.871 33.1407H180.126C179.964 33.1352 179.811 33.0668 179.698 32.9499C179.586 32.8331 179.524 32.677 179.524 32.5148V16.927C179.524 16.7674 179.588 16.6143 179.701 16.5015C179.814 16.3885 179.966 16.3252 180.126 16.3252H182.871C183.031 16.3252 183.183 16.3885 183.296 16.5015C183.409 16.6143 183.473 16.7674 183.473 16.927V32.5148C183.473 32.677 183.411 32.8331 183.299 32.9499C183.186 33.0668 183.033 33.1352 182.871 33.1407ZM199.292 33.1407H196.758C196.599 33.1407 196.445 33.0774 196.333 32.9645C196.22 32.8516 196.156 32.6985 196.156 32.5389V32.0634C194.901 32.8822 193.442 33.3355 191.943 33.3724C189.47 33.3724 186.789 32.4215 186.789 28.3952V28.2869C186.789 24.8864 188.874 23.129 194.062 23.129H195.94V21.814C195.94 19.8761 195.076 19.4066 193.315 19.4066C191.694 19.4014 190.073 19.4808 188.459 19.6444H188.309C188.007 19.6444 187.773 19.554 187.773 19.1388V17.2249C187.773 16.8969 187.95 16.6863 188.339 16.599C189.978 16.2769 191.645 16.1167 193.315 16.1205C197.549 16.1205 199.873 17.9983 199.873 21.814V32.5449C199.872 32.6999 199.81 32.8483 199.702 32.9593C199.594 33.0703 199.447 33.1353 199.292 33.1407ZM195.955 25.7501H194.077C191.369 25.7501 190.767 26.6137 190.767 28.2839V28.4012C190.767 29.8637 191.423 30.2488 192.912 30.2488C193.979 30.2247 195.025 29.9384 195.955 29.4153V25.7501ZM24.0496 14.5407L23.3936 14.7784V39.3668L31.344 34.9372V20.4478L40.1219 17.261L40.8622 16.9902L40.9163 8.43493L24.0496 14.5407ZM31.0611 10.2947L31.6991 10.5264L32.1204 10.6799L40.3054 7.71573L32.3641 4.74264L31.344 5.11578L24.0647 7.7609L30.4172 10.0629L31.0611 10.2947ZM58.8843 33.1708C58.2163 33.2965 57.5388 33.366 56.8592 33.3784C53.4918 33.3784 52.1196 32.6352 52.1196 28.6419V19.2801L49.318 18.8649C49.1617 18.8549 49.0143 18.7884 48.9035 18.6776C48.7927 18.5668 48.7261 18.4194 48.7162 18.263V16.9269C48.7162 16.7673 48.7796 16.6143 48.8924 16.5014C49.0053 16.3885 49.1584 16.3251 49.318 16.3251H52.1196V13.8846C52.1289 13.728 52.1953 13.5803 52.3063 13.4694C52.4172 13.3585 52.5649 13.2921 52.7215 13.2828L55.493 12.8073H55.6133C55.6749 12.8002 55.7373 12.8067 55.7961 12.8262C55.855 12.8456 55.9089 12.8776 55.9541 12.92C55.9994 12.9623 56.0348 13.0141 56.0581 13.0715C56.0813 13.129 56.0918 13.1908 56.0888 13.2527V16.3311H58.773C58.9326 16.3311 59.0857 16.3945 59.1986 16.5074C59.3115 16.6203 59.3749 16.7733 59.3749 16.9329V18.6904C59.3749 18.85 59.3115 19.003 59.1986 19.1159C59.0857 19.2288 58.9326 19.2922 58.773 19.2922H56.0888V28.6419C56.0888 30.1314 56.179 30.309 57.2533 30.309H58.8332C59.2214 30.309 59.4591 30.4595 59.4591 30.7574V32.6352C59.4531 32.9331 59.2816 33.1016 58.8843 33.1708ZM75.279 26.1081H65.5621V26.1954C65.5621 27.9257 66.2747 29.981 69.1399 29.981C71.3155 29.981 73.3708 29.8035 74.6226 29.6801H74.7128C75.0141 29.6801 75.2483 29.8305 75.2483 30.1284V32.0965C75.2483 32.572 75.1581 32.7796 74.6226 32.8699C72.7189 33.2497 70.7794 33.4192 68.8386 33.3754C65.8596 33.3754 61.6168 31.7684 61.6168 25.8945V23.6917C61.6168 19.0424 64.2104 16.1205 68.7727 16.1205C73.335 16.1205 75.8745 19.2591 75.8745 23.6917V25.3618C75.8745 25.8373 75.6967 26.1081 75.279 26.1081ZM71.9206 23.1861C71.9206 20.8601 70.6387 19.5179 68.7906 19.5179C66.9432 19.5179 65.6011 20.8299 65.6011 23.1861V23.3035H71.9206V23.1861ZM89.2868 32.9933C88.0241 33.2721 86.7332 33.4014 85.441 33.3784C81.5652 33.3784 78.6431 30.9951 78.6431 26.1352V23.3637C78.6431 18.5068 81.5652 16.1205 85.441 16.1205C86.7338 16.098 88.0247 16.2283 89.2868 16.5087C89.7922 16.629 89.9124 16.8096 89.9124 17.282V19.22C89.9124 19.5209 89.6745 19.6684 89.377 19.6684H89.2868C88.0119 19.5022 86.7262 19.4327 85.441 19.4607C84.0382 19.4607 82.5791 20.2642 82.5791 23.3727V26.1443C82.5791 29.2467 84.0382 30.0562 85.441 30.0562C86.7262 30.0826 88.0113 30.0132 89.2868 29.8486H89.377C89.6777 29.8486 89.9124 29.9961 89.9124 30.294V32.2319C89.9124 32.6953 89.7922 32.8729 89.2868 32.9933ZM106.364 33.1407H103.623C103.46 33.1352 103.307 33.0668 103.195 32.9499C103.082 32.833 103.02 32.6769 103.021 32.5148V22.7077C103.021 20.1167 102.573 19.4607 100.574 19.4607C99.5634 19.4607 98.3685 19.8188 97.1166 20.4718V32.5088C97.1172 32.6709 97.0552 32.827 96.9426 32.9439C96.8307 33.0607 96.6771 33.1292 96.5147 33.1347H93.7736C93.6111 33.1292 93.4576 33.0607 93.3456 32.9439C93.2331 32.827 93.1704 32.6709 93.1717 32.5088V11.0529C93.1717 10.8933 93.235 10.7403 93.3476 10.6274C93.4608 10.5145 93.6137 10.4511 93.7736 10.4511H96.5147C96.6746 10.4511 96.8275 10.5145 96.9401 10.6274C97.0533 10.7403 97.1166 10.8933 97.1166 11.0529V17.2249C98.2514 16.5388 99.5026 16.1205 101.63 16.1205C105.744 16.1205 106.966 19.0424 106.966 22.7077V32.5148C106.967 32.6769 106.904 32.833 106.792 32.9499C106.679 33.0668 106.526 33.1352 106.364 33.1407ZM21.4574 14.5407L22.1134 14.7784V39.3638L14.1631 34.9372V11.9016L21.4574 14.5407ZM12.8782 11.438L4.58775 8.43476L4.64191 16.99L5.38218 17.2608L12.8782 19.9842V11.438Z" fill="#F8F7E7"/>
</g>
<defs>
<clipPath id="clip0_4_556">
<rect width="200" height="40" fill="white"/>
</clipPath>
</defs>
</svg>
