<svg width="12" height="12" viewBox="0 0 12 12" fill="none" xmlns="http://www.w3.org/2000/svg">
<g clip-path="url(#clip0_3_2)">
<path d="M6 11.25C3.105 11.25 0.75 8.895 0.75 6C0.75 3.105 3.105 0.75 6 0.75C8.895 0.75 11.25 3.105 11.25 6C11.25 8.895 8.895 11.25 6 11.25ZM6 1.5C3.5175 1.5 1.5 3.5175 1.5 6C1.5 8.4825 3.5175 10.5 6 10.5C8.4825 10.5 10.5 8.4825 10.5 6C10.5 3.5175 8.4825 1.5 6 1.5Z" fill="#FD7C1E"/>
<path d="M6 9C7.65685 9 9 7.65685 9 6C9 4.34315 7.65685 3 6 3C4.34315 3 3 4.34315 3 6C3 7.65685 4.34315 9 6 9Z" fill="#FD7C1E"/>
</g>
<defs>
<clipPath id="clip0_3_2">
<rect width="12" height="12" fill="white"/>
</clipPath>
</defs>
</svg>
